<?xml version="1.0" encoding="utf-8"?>
<!-- Generator: Adobe Illustrator 25.0.0, SVG Export Plug-In . SVG Version: 6.00 Build 0)  -->
<svg version="1.1" id="katman_1" xmlns="http://www.w3.org/2000/svg" xmlns:xlink="http://www.w3.org/1999/xlink" x="0px" y="0px"
	 viewBox="0 0 1418.7 1008" style="enable-background:new 0 0 1418.7 1008;" xml:space="preserve">
<style type="text/css">
	.st0{clip-path:url(#SVGID_2_);fill:#FFFFFF;}
	.st1{clip-path:url(#SVGID_2_);fill:#593987;}
	.st2{clip-path:url(#SVGID_2_);fill:#007649;}
</style>
<g>
	<defs>
		<rect id="SVGID_1_" x="334.3" y="129" width="750" height="750"/>
	</defs>
	<clipPath id="SVGID_2_">
		<use xlink:href="#SVGID_1_"  style="overflow:visible;"/>
	</clipPath>
	<path class="st0" d="M705.9,182.2c9.5,0.4,19.3-0.9,28.5,2.1c11.8,4.1,13.1,22.1,3.1,28.8c-6.4,4.4-14.5,3.3-21.8,3.5
		c-0.2,4.8-0.2,9.7-0.5,14.5c-3.6,0-7.2,0-10.7,0C705,214.8,705.5,198.5,705.9,182.2 M716.5,192c-0.1,4.9-0.3,9.8-0.5,14.7
		c4.5,0.1,9.2,1.2,13.5-0.6c5.3-2.2,5.1-10.9-0.1-13.1C725.3,191.3,720.8,191.9,716.5,192"/>
	<path class="st0" d="M672.7,184.3c3.9-0.4,7.7-0.8,11.6-1.2c2,16.2,4.1,32.3,6,48.5c-3.6,0.3-7.1,0.6-10.7,0.8
		c-1.2-10.4-2.7-20.8-3.8-31.2c-4.1,7.4-7.5,15.2-11.2,22.9c-6-5.9-11.4-12.3-17.6-18c1.7,10.2,4,20.3,5.8,30.5
		c-3.4,0.9-6.8,1.7-10.2,2.5c-3-16-6.5-32-9.3-48c3.8-0.9,7.6-1.7,11.5-2.4c5.5,6.3,11.4,12.2,17.1,18.3
		C665.6,199.5,669.1,191.9,672.7,184.3"/>
	<path class="st0" d="M754,234.5c3.3-15.9,5.6-32.1,9.3-47.9c3.4,0.8,6.8,1.5,10.3,2.1c-3,16-6,32-9,47.9
		C761.1,235.9,757.5,235.2,754,234.5"/>
	<path class="st0" d="M802.2,198.3c12.3-2.4,26.1,4.5,30.3,16.6c4.2,11.4-1.2,25.3-12,30.8c-13.6,7.3-32.9-0.2-37.3-15.2
		C778.6,217,788,200.8,802.2,198.3 M803.3,208.7c-7.5,2.7-11.7,11.8-9.5,19.4c2.1,7.7,11.2,12.4,18.6,9.7
		c8.3-2.8,12.6-13.3,9.1-21.2C818.7,209.8,810.2,206.1,803.3,208.7"/>
	<path class="st0" d="M585.2,207c3.1-1.3,6.2-2.5,9.3-3.7c12.6,13,25.6,25.5,38.1,38.6c-3.6,1.2-7.2,2.3-10.9,3.4
		c-2.7-2.9-5.4-5.6-8.2-8.4c-6.3,2.6-12.6,5.3-18.9,7.8c-0.1,3.8-0.2,7.6-0.1,11.3c-3.3,1.9-6.7,3.5-10.2,5.1
		C584.7,243,584.9,225,585.2,207 M594.6,217.5c-0.2,5.5-0.2,11.1-0.1,16.7c4-1.5,8-3,12-4.6C602.5,225.5,598.6,221.4,594.6,217.5"/>
	<path class="st0" d="M833.2,260.6c8.1-14.2,16.1-28.3,24.4-42.4c2.8,1.6,5.6,3.1,8.4,4.5c1.7,12.4,2.9,24.8,4.4,37.2
		c6.2-7.6,10.8-16.4,16.4-24.4c2.9,2,5.8,4,8.7,6c-8.6,13.8-17.7,27.3-26.4,41c-2.6-1.7-5.3-3.3-7.5-5.4
		c-1.6-12.5-2.2-25.2-3.8-37.7c-5.5,8.5-10.2,17.5-15.4,26.2C839.4,263.9,836.3,262.2,833.2,260.6"/>
	<path class="st0" d="M550.9,223.7c8.7,13.8,17.4,27.5,25.7,41.4c-3.1,1.8-6.2,3.6-9.4,5.3c-3.3-5.6-6.7-11-10.1-16.6
		c-5.8,3.8-11.6,7.5-17.2,11.5c3.8,5.3,7.4,10.7,11.2,15.9c-2.8,2.3-5.7,4.5-8.7,6.5c-9.2-13.4-18.6-26.6-27.9-39.9
		c2.8-2.2,5.6-4.3,8.3-6.5c4.2,5,7.4,10.8,11.6,15.8c5.6-4.1,11.6-7.8,17.3-11.7c-3.1-5.5-6.9-10.6-9.8-16.2
		C544.6,226.8,548,225.6,550.9,223.7"/>
	<path class="st0" d="M901.7,278.3c-3-9,6.6-18.6,15.7-16.8c10.1,2,17.8,11.5,19.4,21.4c-3.1,0.7-6.2,1.5-9.2,2.3
		c-1.6-4.4-3.3-9.2-7.1-12.2c-1.9-1.9-5.8-2.7-7.5-0.1c-1.6,2.2-0.1,4.7,1,6.7c3,5.3,7.7,10.1,8.4,16.4c0.8,5.4-2.9,10.2-7.2,13
		c-4.8,3-11.1,2.1-15.8-0.9c-7.9-4.6-12.8-13.1-14.5-22c3.3-0.7,6.6-1.3,9.9-1.7c1.3,6.5,4.5,13.5,11,16.1c3.1,1.5,6.7-2.2,5.3-5.3
		C908.7,289.2,903.6,284.6,901.7,278.3"/>
	<path class="st0" d="M476.7,291.3c-0.4-14.2,12.3-27,26.5-27.1c0.2,3.5,0.5,7,0.7,10.4c-6.6,0.3-13.8,3.7-15.9,10.5
		c-3.9,11.1,8.4,23.2,19.5,19.6c6.9-2.2,10.6-9.5,10.6-16.5c3.2,0,6.5,0,9.7,0c1,14.2-11.3,27.7-25.6,27.8
		C489.1,316.3,477,304.6,476.7,291.3"/>
	<path class="st0" d="M684.2,266.3c49-5.1,99.6,5,142.5,29.4c38.5,22.1,71.1,54.6,92.2,93.7c10.7,19.8,19,41,23.8,63
		c11.9,53.7,4.6,111.5-20.6,160.4c-18.7,36.6-47.1,68.1-81.2,90.9c-32.3,21.1-69.6,34.6-108,38c-29.8,3.5-60.1-0.1-89-7.9
		c-39.7-11.1-76.5-32.9-105.3-62.5c-24.4-24.8-43.2-55-54.7-87.8c-15.9-45.2-17.9-95.3-5.3-141.6c11.3-43.8,36.1-83.8,69.5-114.3
		C585.4,293.5,633.7,271.3,684.2,266.3 M684.2,275.8c-18.2,1.8-36.3,6-53.4,12.6c-53.1,19-98.3,58.6-124.6,108.4
		c-18,33.9-27.3,72.3-26.6,110.7c0.4,38.4,10.9,76.5,29.7,109.9c14,24.4,32.4,46.2,54,64.1c36,29.9,81.6,48,128.3,51.5
		c42.4,3.4,85.5-5.7,123.3-25.1c19.4-10.5,37.9-23.2,53.6-38.8c14.3-13.3,26.1-28.9,36.5-45.3c27.1-43.8,38.6-96.9,32.1-147.9
		c-6.6-54.2-33.6-105.5-74.1-142.2c-24.8-22.4-54.4-39.3-86.3-49.3C747.1,275,715.3,272.5,684.2,275.8"/>
	<path class="st0" d="M917.5,326.7c12.9-9.8,25.6-19.9,38.5-29.7c2.3,2.7,4.5,5.4,6.7,8.2c-5,4-10.1,8-15.1,11.9
		c3.7,5.4,7.9,10.6,11.6,16c5.5-3.3,10.7-7.3,16-11c2,2.9,4.1,5.7,5.6,8.8c-1.1,1.6-3,2.5-4.5,3.7c-11.8,7.9-23.2,16.3-35.1,24.1
		c-2.2-2.8-3.9-5.8-5.9-8.7c5.2-4,10.7-7.5,16.1-11.3c-3.8-5.3-7.7-10.5-11.6-15.8c-5,4.2-10.2,8-15.4,12
		C921.9,332.4,919.6,329.6,917.5,326.7"/>
	<path class="st0" d="M442.2,324c2.8,1.5,5.6,3.1,8.3,4.8c-4.7,7.5-9.8,14.9-13.8,22.9c2.9,1.5,5.7,3.1,8.5,4.7
		c3.9-6.7,8-13.2,12-19.8c2.9,1.5,5.6,3.1,8.3,4.8c-4.1,6.5-8.4,12.9-11.8,19.8c3,1.6,6,3.2,8.9,4.9c4.2-7.4,8.5-14.8,13.4-21.7
		c3.1,0.4,5.7,3.1,8.4,4.7c-7,9.8-13,20.3-18.6,31c-14.3-7.9-28.6-15.7-42.7-23.8C429.3,345.3,435.7,334.6,442.2,324"/>
	<path class="st0" d="M949.1,372.8c14.5-7.3,28.9-14.8,43.6-21.8c1.5,3,3.2,5.9,4.4,9c-2.5,2.1-5.6,3.2-8.4,4.7
		c-11.6,5.9-23.1,11.8-34.7,17.7C952.4,379.2,950.8,376,949.1,372.8"/>
	<path class="st0" d="M585.5,363c18.2-6.8,39.4-4.4,56.1,5.2c12,6.1,22.6,14.7,31.8,24.6c13.8,14.1,23.2,32.9,24.3,52.8
		c1.1,11.7-1.6,23.4-0.2,35.1c0.9,8.9,3.3,17.8,7.8,25.6c-4.3,6.1-9.5,11.5-14.8,16.7c-13.1-8.1-29.1-10.1-44.3-8.6
		c-21.1,2.1-43.4-2.6-60.3-15.8c-17.6-13.7-33.2-31.5-40.2-53c-4.9-15-4.8-31.8,1.7-46.4C554.4,382.6,568.5,369.1,585.5,363
		 M600.1,369.2c-9.8,1.2-19.3,5.2-26.8,11.7c-13.4,10.2-22.1,26.7-21.5,43.7c0.2,14.9,6.7,28.9,15,40.9c9,12.3,20,23.4,33.5,30.8
		c13.3,7.1,28.9,8.8,43.7,6.8c11.5-1.9,22.9-7.1,30.4-16.3c12.4-13.9,14.3-34.1,11-51.8c-3.7-19.6-17-35.8-32.4-47.6
		C638.4,375.4,619.4,366.5,600.1,369.2"/>
	<path class="st0" d="M802.4,359.9c18.1-2.5,37.1,3.4,50.8,15.5c16.7,14,25.3,37,22.1,58.6c-2.6,18.1-12.3,34.4-24.4,47.8
		c-10.6,11.6-22.9,22.1-37.7,27.7c-12.1,4.8-25.3,6-38.3,5.4c-14.1-1.6-29-0.9-41.9,5.5c-8,4-15.2,9.6-21.4,16.2
		c-8.2,8.4-16.5,16.8-24.6,25.2c-4.6-4.3-8.9-8.8-13.3-13.2c8.2-8.1,16.4-16.1,24.6-24.3c7.3-7.4,14.4-15.3,18.2-25.1
		c4.7-11.9,5.4-24.9,4.3-37.5c-1.3-15.4,0.6-31.4,7.6-45.4c6.1-12.6,15.6-23.1,25.9-32.5C767.8,372,784.2,362.3,802.4,359.9
		 M798.8,370.4c-15.2,3.6-28.8,12.3-40.2,22.7c-10.4,9.4-19.4,20.8-23.9,34.2c-4.1,13.4-4.5,28-0.9,41.6c3.4,12.5,12.5,22.9,23.8,29
		c13.7,7,29.8,7.3,44.6,4.5c20.5-4.8,36.9-19.8,48.9-36.5c10.6-14.5,17.8-32.8,14.5-51c-2.8-16.8-14.5-31-28.9-39.5
		C825.3,369.1,811.5,367.6,798.8,370.4"/>
	<path class="st0" d="M602.1,373.6c0.7,0,2.1,0,2.8,0c0,3.3,0.1,6.7,0.1,10c4.7,0,9.4,0,14-0.1c0-3,0-5.9,0.1-8.9
		c0.7,0.2,2.1,0.6,2.8,0.8c0,2.7,0,5.4,0,8.1c4.5,0.1,9.1,0,13.6,0c0.1-0.8,0.2-2.4,0.3-3.2c1.9,0,2.8,1.5,3.6,2.9
		c3,0.1,5.5,1.6,7.9,3.2c-2.8,0-5.6,0-8.4,0c0,5,0,9.9,0,14.9h13.7c0-3.7,0-7.3,0.1-11c4.2,2.2,2.7,7.1,2.9,11
		c3.8,0.4,9.1-1.6,10.9,2.9c-3.6,0-7.3,0-10.9,0V419h14c0-3.5,0-7.1,0.1-10.6c2.9,2.8,3.1,6.8,2.9,10.6c0.9,0,2.6,0.1,3.5,0.1
		c0.5,1,1,2,1.5,3c-1.7,0.1-3.5,0.2-5.2,0.2c0.1,4.5,0.1,9,0.1,13.6c3.2,0,6.4-0.1,9.6,0.2l0.9,2.7c-3.5,0-7,0-10.5,0.1
		c0,4.7,0,9.3,0.1,14c3.9-0.1,7.7-0.1,11.6,0.1c-0.3,0.9-0.5,1.9-0.8,2.9c-3.5,0-7-0.2-10.5,0c-1,4.5-0.1,9.3-0.4,13.9
		c2.7,0,5.3,0,8,0.1c-0.3,0.7-1,2.2-1.3,2.9c-2.2,0-4.5,0-6.7,0c-0.3,5,1.5,11.2-2.9,14.8c-3.9,3.4-9.3,1.7-14,2.1
		c-0.4,2.9,1.3,7.5-2.9,8c-0.1-2.7-0.1-5.4-0.2-8.1c-4.5,0-9.1,0-13.6,0c0,3.6,0.2,7.2-0.1,10.7c-0.8,0.7-2.1,0.2-3.1,0.5
		c0-3.7,0-7.5,0-11.2c-4.6,0-9.1,0-13.7,0c0,3.4,0,6.7,0,10.1c-0.7-0.2-2.2-0.6-3-0.8c0.1-3.1,0.1-6.2,0-9.3c-4.7,0-9.3,0-14,0
		c0,1.6,0,3.2,0,4.7c-0.9-0.4-1.9-0.8-2.8-1.3c0-0.9-0.1-2.6-0.1-3.4c-3.7,0.3-7.5,0-10.1-3c3.4-0.1,6.8,0,10.1,0c0-4.7,0-9.4,0-14
		c-4.7,0-9.3,0-14,0c0,3.8,0,7.6-0.1,11.3c-4.5-2.1-2.4-7.4-2.8-11.3c-4-0.4-9.2,1.6-11.4-2.9c3.8-0.1,7.6-0.1,11.4-0.1
		c0-4.7,0-9.3,0-13.9c-4.8-0.2-9.6-0.1-14.4-0.1c0,3.3,0,6.5,0.1,9.8c-2.8-2.5-3.7-6-3.4-9.6c-2.2,0.1-3.6-0.9-4.4-3
		c1.1,0,3.4,0,4.5,0c0-4.7,0-9.4,0-14.1c-3,0-6,0.1-9-0.2c-0.2-0.7-0.7-2.1-1-2.8c3.3,0,6.6,0,10,0c0-4.6,0-9.1,0-13.7
		c-3.7,0-7.3,0-11-0.2c0-0.8,0.1-2.3,0.2-3c3.6,0,7.2,0,10.8-0.1c-0.1-4.9,0-9.7-0.1-14.6c-2.5,0-5.1,0.1-7.6,0
		c0.4-4.3,4.9-2.5,7.6-2.8c0.4-4.6-1.5-10.6,3.3-13.5c0.1,4.5,0,9,0,13.5c4.8,0,9.6,0,14.3-0.1c0-5,0-9.9-0.1-14.9
		c-4.3,0-8.6,0.1-12.8,0c2.9-4.4,8.4-2.5,12.8-2.9c0.1-2.7-0.9-6.5,2.9-6.9c0,2.3,0,4.6,0,6.9c4.7,0.1,9.4,0.1,14.1,0.1
		C602.1,380.3,602.1,377,602.1,373.6 M588.1,386.5c0,5,0,9.9-0.1,14.9c4.7,0.1,9.4,0.1,14,0c0-5,0.1-10-0.2-15
		C597.3,386.6,592.7,386.6,588.1,386.5 M605.2,386.5c-0.2,5-0.2,10-0.1,15c4.7,0,9.4,0,14.1-0.1c-0.1-4.9,0-9.9-0.1-14.9
		C614.4,386.5,609.8,386.6,605.2,386.5 M622,386.5c-0.1,5,0,9.9-0.1,14.9c4.6,0.1,9.2,0.1,13.8,0.1c0-5,0.1-10-0.1-15
		C631.1,386.6,626.5,386.6,622,386.5 M570.8,404.4c0,4.9,0,9.7,0,14.6c4.8,0,9.5,0,14.3,0c0-4.9,0-9.8,0-14.6
		C580.4,404.4,575.6,404.4,570.8,404.4 M588.1,404.4c0,4.9,0,9.8,0,14.6c4.7,0,9.3,0,14,0c0-4.9,0-9.7,0-14.6
		C597.4,404.4,592.8,404.4,588.1,404.4 M605,404.4c0,4.9,0,9.7,0,14.6c4.7,0,9.3,0,14,0c0-4.9,0-9.8,0-14.6
		C614.4,404.4,609.7,404.4,605,404.4 M622,404.4c0,4.9,0,9.8,0,14.6c4.6,0,9.1,0,13.7,0v-14.6C631.1,404.4,626.6,404.4,622,404.4
		 M638.9,404.4c0,4.9,0,9.7,0,14.6c4.6,0,9.1,0,13.7,0c0-4.9,0-9.7,0-14.6C648.1,404.4,643.5,404.4,638.9,404.4 M570.8,422.2
		c0,4.5,0,9.1-0.1,13.6c4.8,0.2,9.6,0.1,14.4,0.1c0-4.6,0-9.1,0-13.7C580.4,422.2,575.6,422.2,570.8,422.2 M588,422.3
		c0.1,4.6,0.1,9.1,0,13.7c4.7,0,9.3,0,14,0c0.1-4.6,0-9.2,0-13.8C597.4,422.2,592.7,422.2,588,422.3 M605,422.2c0,4.6,0,9.2,0,13.8
		c4.7,0,9.3,0,14,0c0-4.6,0-9.1,0-13.7C614.4,422.2,609.7,422.2,605,422.2 M621.9,422.2c0,4.6,0,9.1,0,13.7c4.6,0,9.1,0,13.7,0
		c0.1-4.6,0-9.2,0-13.8C631.1,422.2,626.5,422.2,621.9,422.2 M638.9,422.2c0,4.6,0,9.2,0,13.7c4.6,0,9.2,0,13.7,0
		c0-4.6,0-9.2,0-13.7H638.9 M655.6,422.2c0,4.6,0,9.2,0.1,13.8c4.6-0.1,9.3-0.1,13.9,0c0.1-4.6,0.1-9.2,0.1-13.8H655.6 M570.9,438.8
		c-0.1,4.7-0.1,9.4-0.1,14.1c4.8,0,9.6,0,14.3-0.1c0-4.7,0-9.3,0-14C580.4,438.9,575.6,438.9,570.9,438.8 M588.1,438.9
		c0,4.7,0,9.3,0,13.9c4.7,0.1,9.4,0.1,14.1,0.1c0-4.7,0-9.4,0-14C597.4,438.9,592.7,438.9,588.1,438.9 M605.1,438.8
		c-0.1,4.7-0.1,9.4,0,14.1c4.7,0,9.4,0,14,0c0-4.7,0-9.3,0-14C614.4,438.9,609.7,438.9,605.1,438.8 M622,438.9c0,4.7,0,9.3,0,14
		c4.6,0.1,9.2,0.1,13.8,0.1c0-4.7,0-9.4-0.1-14.1C631.1,438.9,626.5,438.9,622,438.9 M639,438.8c-0.1,4.7-0.1,9.4-0.1,14.1
		c4.5,0,9.1,0,13.6,0c0.1-4.7,0.1-9.4,0.1-14C648.1,438.8,643.6,438.9,639,438.8 M655.6,438.8c-0.1,4.7,0,9.4,0,14.1h14
		c0-4.7,0-9.4,0-14.1C664.9,438.9,660.3,438.9,655.6,438.8 M588,455.9c0.1,4.6,0,9.3,0,13.9c4.6,0,9.3,0,13.9,0
		c0.1-4.7,0.1-9.4,0.1-14.1C597.4,455.8,592.7,455.8,588,455.9 M605,455.8c0,4.7,0,9.4,0,14.1c4.7,0,9.3,0,14,0c0-4.7,0-9.3,0-14
		C614.4,455.8,609.7,455.8,605,455.8 M622,455.8c0,4.7,0,9.3,0,14c4.6,0,9.1,0,13.7,0c0.1-4.7,0-9.4,0-14.1
		C631.1,455.8,626.5,455.8,622,455.8 M638.9,455.8c0,4.7,0,9.4,0,14.1c4.6,0,9.1,0,13.7-0.1c0-4.7,0-9.4-0.1-14
		C648,455.8,643.5,455.8,638.9,455.8 M655.6,455.8c0,4.7,0,9.4,0.1,14.1c4.6-0.1,9.3-0.1,13.9,0c0-4.7,0-9.4,0-14.1
		C664.9,455.8,660.3,455.8,655.6,455.8 M605.1,472.8c0,4.7,0,9.4,0,14c4.7,0,9.4,0,14,0c0-4.7,0-9.3,0-14
		C614.4,472.8,609.7,472.8,605.1,472.8 M622,472.8c0,4.6,0,9.3,0,13.9c4.6,0.1,9.2,0.1,13.8,0.1c0-4.7,0-9.4,0-14
		C631.1,472.8,626.5,472.8,622,472.8 M639,472.7c-0.1,4.7-0.1,9.4-0.1,14.1c4.5,0,9.1,0,13.6,0c0.1-4.7,0.1-9.4,0.1-14
		C648.1,472.8,643.6,472.8,639,472.7 M655.6,472.7c0,4.7,0,9.4,0,14c4.5-0.4,9.5,0.9,13.7-0.6c0.9-4.4,0-9,0.2-13.5
		C664.9,472.8,660.3,472.8,655.6,472.7"/>
	<path class="st0" d="M813.4,374.1c1-0.1,2-0.1,2.9-0.2c0,3.3,0,6.7,0,10c4.6,0,9.3,0,13.9,0c0.1-2.3,0.1-4.6,0.2-6.9
		c3.8,0.4,2.6,4.3,2.9,6.9c4.5,0.1,9.6-1.1,12.9,2.7c-4.3,0.3-8.7,0.2-13.1,0.2v14.9c4.8,0,9.5,0,14.3,0c0-4.5,0-9.1,0-13.6
		c4.4,3.1,2.4,8.7,3,13.2c1.9,0.9,4.2,0.3,6.3,0.4c0.3,0.7,1,2.2,1.3,2.9h-7.7v14.9c3.6,0,7.2-0.2,10.8,0.2c0.1,0.7,0.4,2.1,0.5,2.7
		c-3.8,0-7.5,0-11.3,0c-0.1,4.6-0.1,9.2,0,13.8h10c-0.2,0.8-0.5,2.4-0.7,3.2c-3.1,0-6.2,0-9.3,0c0,4.6,0,9.1,0,13.7
		c1.6,0,3.1,0.1,4.7,0.1c-0.9,1.9-2.4,3.3-4.7,3.2c0.3,3.5-0.3,7-3,9.5c0-3.3,0-6.5,0-9.8h-14.3v14c3.8,0,7.6,0,11.4,0.1
		c-2.3,4.3-7.4,2.6-11.4,2.8c-0.5,3.9,1.5,9.2-3,11.3c-0.1-3.7,0-7.5,0-11.2c-4.7,0-9.3,0-14,0v14c3.4,0,6.7,0,10.1-0.1
		c-2.5,3.1-6.4,3.4-10.1,3.1c0,0.8,0.1,2.3,0.1,3.1c-1,0.5-1.9,1.1-2.9,1.6c-0.1-1.6-0.1-3.2-0.2-4.8h-14c0,3.1,0.1,6.2-0.1,9.3
		c-0.7,0.2-2.1,0.7-2.8,1c-0.1-3.4,0-6.8,0-10.2c-4.7-0.1-9.5-0.2-14.2,0.1c0.1,3.6,0.1,7.3,0.1,10.9c-0.7,0-2.2,0-2.9,0
		c0-3.7,0-7.4,0-11.1h-14c0,2.6,0,5.3-0.1,8c-4.2-0.5-2.6-5-2.9-7.9c-3.6-0.1-7.3,0.2-11-0.3c-2.2-1.6-4.1-3.6-5.8-5.8
		c-0.4-3.6-0.2-7.3-0.3-11c-2.8-0.3-7.2,1.4-7.9-2.5c2.6-0.5,5.3-0.4,8-0.4v-14c-3.6,0-7.3,0.1-10.9-0.1c-0.1-0.7-0.4-2.1-0.5-2.8
		c3.7-0.1,7.5,0,11.2,0c0.2-4.6,0.1-9.2,0.1-13.8c-3.4,0-6.9,0-10.3-0.1c0.3-1,0.6-2,1-3c3.1-0.3,6.2-0.1,9.3-0.1
		c0-4.6,0-9.2,0-13.8c-1.6,0-3.2,0-4.8,0c0.3-0.7,1-2.2,1.4-3c0.9,0,2.6,0.1,3.4,0.1c0-3.7-0.2-7.8,3-10.5c0.1,3.5,0.1,6.9,0,10.4
		c4.7,0,9.4,0,14.1,0c-0.1-4.9-0.1-9.8,0-14.8c-3.6-0.1-7.3-0.1-10.9-0.2c0.8-1,1.6-2,2.5-2.9c2.8,0,5.6,0,8.4,0.1
		c0-2.8,0-5.5,0-8.3c1-0.9,2-1.7,2.9-2.5c0,3.6,0,7.2,0,10.9h14v-14.9c-2.8,0-5.5,0-8.3-0.1c2.3-1.7,4.8-3.1,7.8-3.1
		c0.6-1.6,1.9-2.6,3.4-3.3c0,0.9,0.1,2.7,0.1,3.6h14c0-2.7,0-5.4-0.1-8c0.7-0.2,2.2-0.7,3-0.9v8.9h14
		C813.4,380.6,813.4,377.3,813.4,374.1 M782.5,386.8c0,5,0,9.9,0,14.9h14c0-5,0-9.9,0-14.9C791.8,386.8,787.1,386.8,782.5,386.8
		 M799.4,386.8v14.9c4.7,0,9.4,0,14,0v-14.9C808.8,386.8,804.1,386.8,799.4,386.8 M816.4,386.8c0,5,0,9.9,0,14.9c4.7,0,9.3,0,14,0
		c0-5,0-9.9,0-14.9H816.4 M765.5,404.7c0,5,0,10,0,14.9c4.6,0,9.3,0,13.9,0c0-5,0-10,0-14.9H765.5 M782.4,404.7
		c0.1,4.9,0.1,9.9,0,14.8c4.7,0.1,9.4,0.1,14.1-0.1c-0.1-4.9-0.1-9.9-0.1-14.8C791.8,404.6,787.1,404.6,782.4,404.7 M799.4,404.7
		c0,5,0,10,0.1,15c4.6-0.1,9.3-0.1,13.9,0c0.1-5,0-10,0-14.9H799.4 M816.3,404.8c0.1,4.9,0.1,9.9,0,14.8c4.7,0,9.4,0.1,14.1-0.1
		c-0.1-4.9-0.1-9.8-0.1-14.8C825.7,404.6,821,404.6,816.3,404.8 M833.3,404.7c0,5,0,9.9,0,14.9c4.8,0,9.6,0,14.3,0c0-5,0-9.9,0-14.9
		H833.3 M748.5,422.5c0,4.5,0.1,9.1-0.1,13.6c4.7,0.2,9.4,0.1,14.1,0.1c0-4.6,0-9.2-0.1-13.8C757.8,422.5,753.2,422.5,748.5,422.5
		 M765.6,422.4c-0.1,4.6-0.1,9.2-0.1,13.8h14c0-4.6,0-9.2,0-13.8C774.8,422.5,770.2,422.5,765.6,422.4 M782.4,422.5
		c0,4.5,0.1,9-0.1,13.6c4.7,0.2,9.4,0.2,14.1,0.1c0-4.5,0-9.1,0.1-13.6C791.8,422.4,787.1,422.5,782.4,422.5 M799.5,422.4
		c-0.1,4.6-0.1,9.2-0.1,13.8h14c0-4.6,0-9.2,0-13.8C808.7,422.5,804.1,422.5,799.5,422.4 M816.3,422.5c0,4.5,0,9.1,0,13.6
		c4.7,0.2,9.4,0.1,14.1,0.1c0-4.5,0-9.1,0.1-13.6C825.8,422.4,821,422.5,816.3,422.5 M833.3,422.5c0,4.6,0,9.1,0,13.7h14.3
		c0-4.6,0-9.1,0-13.7C842.9,422.5,838.1,422.5,833.3,422.5 M748.6,439.4c0,4.6,0,9.2,0,13.7h14c0-4.6,0-9.2,0-13.7H748.6
		 M765.5,439.4v13.7c4.7,0,9.4,0,14,0v-13.7H765.5 M782.5,439.5c0,4.6,0,9.1,0,13.7h14c0-4.6,0-9.2,0-13.7
		C791.8,439.4,787.1,439.4,782.5,439.5 M799.4,439.4v13.7c4.7,0,9.4,0,14,0v-13.7C808.8,439.4,804.1,439.4,799.4,439.4 M816.4,439.4
		c0,4.6,0,9.2,0,13.7h14c0-4.6,0-9.2,0-13.7H816.4 M833.3,439.5v13.7c4.8,0,9.6,0,14.3,0c0-4.6,0-9.1,0-13.7
		C842.9,439.4,838.1,439.4,833.3,439.5 M748.6,456.1c0,4.7,0,9.4,0,14c4.7,0,9.3,0,14,0c0-4.7,0-9.4,0-14H748.6 M765.5,470.1h14v-14
		h-14V470.1z M782.5,456.1c0,4.7,0,9.4,0,14h14c0-4.7,0-9.4,0-14H782.5 M799.4,470.1h14v-14h-14V470.1z M816.4,456.1
		c0,4.7,0,9.4,0,14h14c0-4.7,0-9.4,0-14H816.4 M748.6,473.1c0,4.7,0,9.3,0,14c4.7,0,9.3,0,14,0c0-4.7,0-9.4,0-14H748.6 M765.5,473.1
		v14c4.7,0,9.4,0,14,0v-14C774.9,473.1,770.2,473.1,765.5,473.1 M782.5,473.1c0,4.7,0,9.3,0,14c4.7,0.1,9.4,0.1,14.1,0
		c0-4.7,0-9.3,0-14C791.8,473.1,787.1,473,782.5,473.1 M799.4,473.1v14c4.7,0,9.4,0,14,0v-14C808.8,473.1,804.1,473.1,799.4,473.1"
		/>
	<path class="st0" d="M409,387.6c1.4-3.3,2.8-6.5,4.1-9.8c15,5.9,30.4,11.2,45.3,17.4c-1,3.3-2.2,6.6-4,9.6
		c-6.2-1.8-12-4.6-18.2-6.4c-1.9,6.2-4.4,12.2-6.2,18.4c6.2,1.8,12.3,3.8,18.5,5.7c-1,3.4-1.9,6.8-2.9,10.2
		c-15.5-4.6-30.8-9.8-46.3-14.4c0.6-3.7,1.6-7.3,3-10.7c6,2.1,12.1,4,18.2,5.8c2.1-6.2,4.2-12.4,6.5-18.5
		C421.1,392.2,414.9,390.2,409,387.6"/>
	<path class="st0" d="M960.9,397.1c15.4-5.4,30.5-11.4,45.9-16.7c2.4,6.9,5.5,13.6,7.5,20.6c1.6,5.1,1.6,11.2-1.8,15.6
		c-5.1,6.6-15.5,9.4-22.7,4.5c-6.4-4.2-8.7-11.9-11-18.8c-4.7,1.4-9.3,3.3-14,4.8C963.5,403.8,962.2,400.4,960.9,397.1 M987.6,398.8
		c1.8,4.3,2.6,9.4,6.3,12.6c4.3,3.4,11.5-0.2,11.6-5.6c-0.3-4.3-2.4-8.1-3.8-12C997,395.4,992.3,397.1,987.6,398.8"/>
	<path class="st0" d="M394.5,436.3c3.3,0.4,6.5,1,9.8,1.5c-0.8,4.9-1.9,9.7-2.5,14.6c12.8,1.7,25.6,3.7,38.4,5.4
		c-0.4,3.6-0.9,7.2-1.5,10.7c-12.9-1.8-25.7-3.9-38.6-5.4c-0.6,4.7-1.2,9.5-1.5,14.3c-3.1-0.3-6.3-0.6-9.4-0.8
		C389.4,463.1,392.1,449.7,394.5,436.3"/>
	<path class="st0" d="M1001.8,443.2c5-7,16.9-6.9,22,0c6.2,8.2,5.1,19.6,0.9,28.4c-3.1-1.2-6.1-2.6-9-4.1c2.1-5.2,4.4-11.3,1.7-16.7
		c-1.3-2.8-6-3.2-7.1-0.2c-2.6,6.9-1.2,14.9-5.3,21.4c-5.1,7.8-18.3,7.1-23-0.7c-5.7-9.4-4.9-22.3,1.6-31.1c2.6,1.8,5.3,3.5,7.9,5.2
		c-3,5.7-5.3,12.6-2.5,18.8c1.1,3.1,6.2,4,7.5,0.7C999.2,457.9,997.6,449.7,1001.8,443.2"/>
	<path class="st0" d="M713.9,543.3c4.3-4.2,8.8-8.2,13.5-11.9c6,5.7,11.6,11.8,17.8,17.3c-4.3,4.4-8.8,8.7-13,13.2
		C725.8,556,720,549.5,713.9,543.3"/>
	<path class="st0" d="M667.6,553.1l0.8,0.1c5,4.4,9.5,9.5,14.4,14.1c-1.7,2.2-3.4,4.5-5.5,6.4c-10.5,0.6-21.2,0.1-31.7,0.2
		C652.7,566.7,659.9,559.5,667.6,553.1"/>
	<path class="st0" d="M736.8,566.5c4.6-4.7,9.1-9.5,14.1-13.8c2,2.1,4.9,3.6,6.3,6.3c0.3,10.5,0.1,20.9,0.1,31.4
		c-6.4-6.8-12.9-13.4-19.2-20.3C737.5,569.1,735.4,567.7,736.8,566.5"/>
	<path class="st0" d="M764,565c4.3,4,8.4,8.1,12.8,12c0.1,11.1,0.1,22.3,0.1,33.4c-4-4.1-8-8.1-11.9-12.2c-1.5-1.4-0.8-3.6-1-5.3
		C764,583.6,763.9,574.3,764,565"/>
	<path class="st0" d="M625.2,593.5c4.2-4.4,8.7-8.5,13-12.8c10.8,0,21.6-0.1,32.4,0c-4.1,4.3-7.9,9-12.5,12.7
		C647,593.7,636.1,593.4,625.2,593.5"/>
	<path class="st0" d="M783.4,583.6c4.4,4.2,8.6,8.6,13,12.8c-0.1,11,0.1,22-0.1,33c-4.5-3.9-8.7-8.2-12.9-12.4
		C783.6,605.9,783.5,594.7,783.4,583.6"/>
	<path class="st0" d="M618.4,600.2c11,0.1,22-0.1,33,0c-3.8,4.6-8.2,8.5-12.3,12.8c-11,0-22,0.1-33.1-0.1
		C610,608.6,614.2,604.4,618.4,600.2"/>
	<path class="st0" d="M802.9,603.1c6,5.8,11.7,11.9,17.4,18c2,2,4.1,5.1,2.4,7.9c-2.4,4.4-6.2,8.1-10.5,10.5
		c-3.6,1.9-6.7-1.4-9.2-3.5C802.9,625,802.9,614,802.9,603.1"/>
	<path class="st0" d="M599.5,619.8c10.9,0.1,21.9,0,32.8,0.1c-5.6,5.8-11.5,11.1-17.2,16.7c-2.2,2.1-5.1,4.7-8.4,3.1
		c-4.7-2.7-9-6.6-11.1-11.7C594.4,624.6,597.6,622.1,599.5,619.8"/>
	<path class="st0" d="M695.4,640.9c8.1-6.4,20.2-6.5,28.2,0.1c-4.5,3.9-10.5,6.8-16.6,5.7C702.6,646.3,698.7,643.8,695.4,640.9"/>
	<path class="st0" d="M690.9,645.4c4,3.4,8.5,6.4,13.8,7.2c8.4,1.8,17.2-1.4,23.3-7.3c5.2,7.8,5.2,18.3,0,26.1
		c-5.1-4.6-11.6-7.9-18.6-7.6c-7-0.2-13.4,3.2-18.5,7.6C685.8,663.6,685.8,653.3,690.9,645.4"/>
	<path class="st0" d="M695.4,676c7.4-7.8,20.8-7.9,28.2,0C715.5,682.5,703.5,682.4,695.4,676"/>
	<path class="st0" d="M500.6,680.4c2.9,3,5.6,6.1,8.1,9.4c-5.3,10.1-10.2,20.3-15.5,30.4c10.1-5.3,19.8-11.2,29.9-16.5
		c2.2,2.1,4.4,4.2,6.7,6.2c-4.1,10.3-8.7,20.4-12.7,30.8c9.6-5.6,18.5-12.5,28.3-17.8c3.2,1.9,6.2,4.3,9.3,6.3
		c-14.8,9.4-30.1,18-45.2,27.1c-2.4-2-4.8-4-7.3-6c3.8-10.2,8.5-20.1,12.3-30.3c-9.6,4.9-19.1,10.2-28.7,15.2
		c-2.2-2.1-4.5-4.1-6.8-6.1C485.8,712.7,493.6,696.7,500.6,680.4"/>
	<path class="st0" d="M910,689.8c2.2-2.8,4.5-5.4,7-8c11.7,11.2,23.5,22.3,35.3,33.4c-2.1,2.3-4.1,4.7-6.3,7
		c-12.9-2.1-25.9-3.4-38.8-5c7.1,7.4,14.1,15,21.4,22.3c-2.5,2.5-5.1,4.9-7.8,7.2c-11.2-11.7-22.6-23.3-33.5-35.3
		c2.4-2.3,4.7-5.1,7.8-6.3c12.1,1.4,24,3.5,36.1,4.9C924.4,703,917.1,696.4,910,689.8"/>
	<path class="st0" d="M866.6,728.3c6.1-1.4,12.8-0.9,18.3,2.4c9.8,5.5,15.3,18,12,28.9c-3.7,13.7-19.7,22.6-33.3,18.1
		c-11.6-3.5-19.3-16.4-17.1-28.3C848.2,739.2,856.7,730.9,866.6,728.3 M867.7,738.5c-5.4,1.5-10,6.4-10.6,12.1
		c-1.3,8.6,6,17.6,14.8,17.7c8.2,0.6,15.8-7.1,15.1-15.3C886.7,743.7,876.9,735.7,867.7,738.5"/>
	<path class="st0" d="M564.1,735.6c3.1,1.6,6.2,3.3,9.2,4.9c-8,14.3-16.5,28.3-25,42.3c-3-1.9-6-3.7-9-5.5
		C547.4,763.4,556,749.7,564.1,735.6"/>
	<path class="st0" d="M586.7,748.2c3.4,1.7,7.1,3,10.4,5.1c2,7.8,3,15.8,4.7,23.7c6.3-4.8,12.2-10.1,18.5-14.8
		c3.4,1.4,6.9,2.6,10.5,3.7c-5.2,15.3-11.1,30.4-16.5,45.6c-3.3-1-6.7-2-10-3c3.2-10,7.3-19.7,10.6-29.7
		c-6.8,4.7-13.4,9.5-20.2,14.2c-1.8-7.9-3.3-15.9-5-23.9c-4.6,9.3-8.2,19-12.5,28.5c-3.1-1.6-6.6-2.5-9.3-4.7
		C573.8,777.8,580.4,763.1,586.7,748.2"/>
	<path class="st0" d="M789.8,765.2c7.5-2.2,14.7-5.6,22.4-7.5c9.4-2.1,19.9,1.8,25.2,10c5.8,8.6,5.7,21.1-1.4,29
		c-7.5,8.8-19.7,10.6-30,14.5C800.6,795.9,794.7,780.7,789.8,765.2 M803.1,771.2c3.4,9.1,6.7,18.3,9.8,27.5
		c5.5-1.8,11.7-3.6,15.2-8.7c5.6-7.9,0.6-20.6-8.9-22.6C813.6,766.2,808.2,769.1,803.1,771.2"/>
	<path class="st0" d="M739.7,775.6c11.7-1.4,23.3-3.6,34.8-6.1c0.6,3.1,1.2,6.2,1.8,9.4c-8.1,1.9-16.3,3.7-24.6,4.8
		c0.4,3.3,0.9,6.6,1.5,9.9c7.5-1.2,14.9-2.8,22.3-4.3c0.6,3.1,1.2,6.2,1.9,9.3c-7.5,1.9-15.2,2.8-22.7,4.6c0.2,3.3,0.8,6.6,1.3,9.8
		c9.1-1.4,18-3.3,27-5.3c0.7,3.1,1.3,6.3,1.8,9.5c-12.6,2.6-25.2,5-38,6.6C744.7,807.7,741.9,791.7,739.7,775.6"/>
	<path class="st0" d="M635.6,817.5c3.4-15.9,6-32,9.7-47.8c8,2.1,16.2,3.1,24.2,5c5.3,1.3,10.4,5.4,10.8,11.1
		c0.6,5.3-2.5,10.1-7,12.6c3.9,3.2,7.7,7.6,6.3,13.1c-0.7,7.6-8.7,11.9-15.8,11.2C654.3,821.7,645,819.4,635.6,817.5 M653.3,781.1
		c-0.6,3.3-1.3,6.6-2,9.9c4.8,1.2,9.7,2.8,14.7,1.9c3.7-0.9,4.6-6.6,1.3-8.5C663,782.2,658,782.1,653.3,781.1 M649.7,800
		c-0.7,3.4-1.4,6.9-2.1,10.3c5.7,1.2,11.5,3,17.4,2.7c4.4-0.4,5.9-7.1,1.8-9C661.5,801.3,655.4,801.5,649.7,800"/>
	<path class="st0" d="M696.8,777c3.6,0,7.2,0.2,10.8,0.3c-0.3,13-0.5,25.9-0.6,38.9c7.9,0.2,15.8-0.4,23.7-0.7
		c0.2,3.2,0.4,6.4,0.6,9.6c-11.7,0.8-23.4,0.9-35.2,0.6C696.1,809.6,696.7,793.3,696.8,777"/>
	<path class="st1" d="M684.3,148.4c60.5-4.4,122.2,7,177,33c47.7,22.8,90.5,56,123.8,97.1c28.9,35,50.7,75.8,64.4,119.1
		c16.5,52.3,20.5,108.4,11.9,162.5c-14.3,91.5-66.2,176.4-141,231c-41.6,30.7-90,52.2-140.7,62.3c-50.1,10.4-102.4,9.1-152.3-2.4
		c-93-21.4-175.6-82.7-224.3-164.6c-44.6-73.9-60.3-164.3-43.9-249c2.9-18.8,8.4-37.1,14.8-55c27.4-75.6,81.4-141.1,150.1-182.8
		c27.5-16.9,57.4-29.8,88.3-38.7C635.9,154.7,659.9,149.6,684.3,148.4 M705.9,182.2c-0.4,16.3-0.9,32.5-1.4,48.8c3.6,0,7.2,0,10.7,0
		c0.3-4.8,0.3-9.7,0.5-14.5c7.3-0.2,15.4,1,21.8-3.5c10-6.7,8.7-24.7-3.1-28.8C725.3,181.3,715.4,182.6,705.9,182.2 M672.7,184.3
		c-3.6,7.6-7.2,15.2-10.8,22.8c-5.7-6.1-11.6-12.1-17.1-18.3c-3.8,0.7-7.7,1.5-11.5,2.4c2.8,16.1,6.3,32,9.3,48
		c3.4-0.8,6.8-1.7,10.2-2.5c-1.8-10.2-4.1-20.3-5.8-30.5c6.1,5.8,11.6,12.2,17.6,18c3.7-7.6,7.1-15.4,11.2-22.9
		c1.2,10.4,2.6,20.8,3.8,31.2c3.6-0.2,7.1-0.5,10.7-0.8c-2-16.2-4-32.4-6-48.5C680.4,183.5,676.6,183.9,672.7,184.3 M754,234.5
		c3.5,0.8,7,1.5,10.6,2.1c3-16,6-31.9,9-47.9c-3.4-0.7-6.9-1.4-10.3-2.1C759.7,202.4,757.3,218.5,754,234.5 M802.2,198.3
		c-14.2,2.4-23.6,18.6-19,32.2c4.4,15,23.7,22.5,37.3,15.2c10.8-5.5,16.3-19.4,12-30.8C828.4,202.8,814.5,196,802.2,198.3
		 M585.2,207c-0.3,18-0.5,36-0.9,54c3.5-1.6,6.9-3.2,10.2-5.1c-0.1-3.8-0.1-7.6,0.1-11.3c6.4-2.5,12.6-5.2,18.9-7.8
		c2.7,2.8,5.5,5.6,8.2,8.4c3.6-1.1,7.2-2.3,10.9-3.4c-12.5-13.1-25.5-25.6-38.1-38.6C591.4,204.5,588.3,205.7,585.2,207
		 M833.2,260.6c3.1,1.7,6.2,3.3,9.3,4.9c5.2-8.7,9.8-17.7,15.4-26.2c1.6,12.5,2.2,25.2,3.8,37.7c2.2,2.2,5,3.7,7.5,5.4
		c8.7-13.7,17.8-27.2,26.4-41c-2.9-2-5.8-4-8.7-6c-5.6,8-10.3,16.8-16.4,24.4c-1.5-12.4-2.7-24.8-4.4-37.2c-2.9-1.4-5.6-2.9-8.4-4.5
		C849.3,232.2,841.3,246.4,833.2,260.6 M550.9,223.7c-2.9,1.9-6.3,3.1-8.9,5.5c2.9,5.6,6.7,10.7,9.8,16.2
		c-5.8,3.9-11.7,7.6-17.3,11.7c-4.3-5-7.4-10.8-11.6-15.8c-2.7,2.2-5.5,4.3-8.3,6.5c9.3,13.3,18.7,26.5,27.9,39.9
		c2.9-2.1,5.8-4.3,8.7-6.5c-3.8-5.2-7.4-10.6-11.2-15.9c5.7-4,11.5-7.7,17.2-11.5c3.3,5.5,6.8,11,10.1,16.6c3.2-1.6,6.3-3.5,9.4-5.3
		C568.4,251.1,559.6,237.4,550.9,223.7 M901.7,278.3c1.9,6.3,7,10.9,9.4,16.9c1.5,3.1-2.2,6.7-5.3,5.3c-6.5-2.6-9.8-9.6-11-16.1
		c-3.3,0.4-6.6,1-9.9,1.7c1.7,8.9,6.6,17.3,14.5,22c4.6,3,10.9,3.8,15.8,0.9c4.3-2.7,8-7.6,7.2-13c-0.7-6.3-5.4-11.1-8.4-16.4
		c-1.1-2-2.6-4.5-1-6.7c1.7-2.6,5.5-1.8,7.5,0.1c3.8,3,5.5,7.8,7.1,12.2c3.1-0.9,6.1-1.6,9.2-2.3c-1.6-10-9.3-19.4-19.4-21.4
		C908.3,259.7,898.7,269.3,901.7,278.3 M476.7,291.3c0.3,13.2,12.3,25,25.6,24.7c14.3-0.1,26.6-13.6,25.6-27.8c-3.3,0-6.5,0-9.7,0
		c0,6.9-3.7,14.2-10.6,16.5c-11.1,3.6-23.3-8.5-19.5-19.6c2.1-6.8,9.2-10.1,15.9-10.5c-0.2-3.5-0.5-7-0.7-10.4
		C489.1,264.3,476.4,277.1,476.7,291.3 M684.2,266.3c-50.5,5-98.8,27.2-136.1,61.4c-33.4,30.5-58.2,70.5-69.5,114.3
		c-12.6,46.3-10.6,96.4,5.3,141.6c11.5,32.8,30.4,63,54.7,87.8c28.8,29.6,65.6,51.3,105.3,62.5c28.9,7.8,59.2,11.4,89,7.9
		c38.4-3.4,75.8-17,108-38c34.2-22.8,62.6-54.3,81.2-90.9c25.2-48.9,32.5-106.7,20.6-160.4c-4.8-22-13.1-43.2-23.8-63
		c-21.1-39.1-53.7-71.7-92.2-93.7C783.8,271.3,733.2,261.2,684.2,266.3 M917.5,326.7c2.2,2.9,4.5,5.7,6.8,8.3
		c5.1-4,10.4-7.8,15.4-12c3.9,5.2,7.7,10.5,11.6,15.8c-5.3,3.8-10.9,7.3-16.1,11.3c2,2.9,3.8,5.9,5.9,8.7
		c11.9-7.8,23.3-16.2,35.1-24.1c1.6-1.2,3.4-2.1,4.5-3.7c-1.6-3.1-3.7-5.9-5.6-8.8c-5.3,3.7-10.4,7.6-16,11
		c-3.7-5.5-7.8-10.6-11.6-16c5.1-4,10.1-7.9,15.1-11.9c-2.2-2.7-4.5-5.5-6.7-8.2C943,306.8,930.4,317,917.5,326.7 M442.2,324
		c-6.6,10.6-13,21.3-19.1,32.2c14.1,8.2,28.5,16,42.7,23.8c5.6-10.7,11.6-21.2,18.6-31c-2.7-1.6-5.3-4.2-8.4-4.7
		c-4.9,6.9-9.3,14.3-13.4,21.7c-2.9-1.7-5.9-3.3-8.9-4.9c3.4-6.9,7.7-13.3,11.8-19.8c-2.7-1.7-5.5-3.3-8.3-4.8
		c-4,6.6-8.1,13.2-12,19.8c-2.8-1.6-5.7-3.2-8.5-4.7c4-8,9-15.4,13.8-22.9C447.8,327.1,445.1,325.5,442.2,324 M949.1,372.8
		c1.6,3.2,3.2,6.4,4.8,9.6c11.6-5.9,23.1-11.8,34.7-17.7c2.8-1.5,6-2.6,8.4-4.7c-1.2-3.1-2.9-6-4.4-9
		C978.1,358,963.7,365.5,949.1,372.8 M409,387.6c5.9,2.7,12.1,4.6,18.1,7.3c-2.3,6.1-4.4,12.3-6.5,18.5c-6.1-1.8-12.2-3.7-18.2-5.8
		c-1.3,3.5-2.3,7.1-3,10.7c15.5,4.6,30.8,9.8,46.3,14.4c0.9-3.4,1.9-6.8,2.9-10.2c-6.2-1.9-12.3-3.9-18.5-5.7
		c1.8-6.2,4.3-12.2,6.2-18.4c6.2,1.8,12,4.6,18.2,6.4c1.8-3,3-6.3,4-9.6c-14.9-6.2-30.2-11.5-45.3-17.4
		C411.8,381,410.4,384.3,409,387.6 M960.9,397.1c1.3,3.3,2.6,6.7,3.9,10c4.7-1.5,9.3-3.4,14-4.8c2.3,6.9,4.7,14.6,11,18.8
		c7.2,4.9,17.6,2.1,22.7-4.5c3.4-4.4,3.4-10.5,1.8-15.6c-2.1-7-5.2-13.7-7.5-20.6C991.4,385.8,976.3,391.7,960.9,397.1 M394.5,436.3
		c-2.4,13.3-5.1,26.8-5.4,40.3c3.2,0.3,6.3,0.5,9.4,0.8c0.3-4.8,0.9-9.6,1.5-14.3c12.9,1.5,25.7,3.6,38.6,5.4
		c0.5-3.6,1-7.1,1.5-10.7c-12.8-1.7-25.6-3.7-38.4-5.4c0.6-4.9,1.8-9.7,2.5-14.6C401,437.3,397.8,436.7,394.5,436.3 M1001.8,443.2
		c-4.2,6.5-2.6,14.7-5.3,21.6c-1.3,3.3-6.5,2.4-7.5-0.7c-2.8-6.2-0.5-13.1,2.5-18.8c-2.7-1.7-5.3-3.4-7.9-5.2
		c-6.6,8.7-7.3,21.7-1.6,31.1c4.7,7.9,17.9,8.5,23,0.7c4.1-6.4,2.7-14.5,5.3-21.4c1.2-3,5.8-2.6,7.1,0.2c2.7,5.4,0.4,11.5-1.7,16.7
		c2.9,1.5,5.9,2.9,9,4.1c4.2-8.8,5.3-20.3-0.9-28.4C1018.7,436.3,1006.8,436.2,1001.8,443.2 M500.6,680.4
		c-7.1,16.3-14.8,32.3-21.7,48.7c2.3,2,4.5,4.1,6.8,6.1c9.6-5.1,19.1-10.3,28.7-15.2c-3.8,10.2-8.5,20.1-12.3,30.3
		c2.5,1.9,4.9,3.9,7.3,6c15.1-9,30.4-17.7,45.2-27.1c-3.2-2-6.1-4.4-9.3-6.3c-9.8,5.3-18.7,12.2-28.3,17.8
		c4-10.3,8.7-20.4,12.7-30.8c-2.3-2-4.5-4.1-6.7-6.2c-10.1,5.3-19.8,11.2-29.8,16.5c5.2-10.1,10.2-20.3,15.5-30.4
		C506.2,686.5,503.5,683.4,500.6,680.4 M910,689.8c7.1,6.7,14.4,13.3,21.3,20.2c-12.1-1.4-24-3.5-36.1-4.9c-3.1,1.2-5.4,4-7.8,6.3
		c10.9,12,22.2,23.6,33.5,35.3c2.7-2.3,5.3-4.7,7.8-7.2c-7.3-7.3-14.2-14.9-21.4-22.3c12.9,1.6,25.9,2.9,38.8,5
		c2.1-2.3,4.2-4.6,6.3-7c-11.8-11.1-23.6-22.3-35.3-33.4C914.5,684.3,912.2,687,910,689.8 M866.6,728.3
		c-9.9,2.5-18.4,10.8-20.1,21.1c-2.2,11.9,5.5,24.7,17.1,28.3c13.5,4.5,29.5-4.5,33.3-18.1c3.4-10.9-2.1-23.4-12-28.9
		C879.5,727.5,872.7,726.9,866.6,728.3 M564.1,735.6c-8.1,14-16.7,27.7-24.8,41.8c3.1,1.8,6.1,3.6,9,5.5c8.4-14,17-28,25-42.3
		C570.2,738.9,567.2,737.2,564.1,735.6 M586.7,748.2c-6.3,14.9-12.9,29.7-18.9,44.7c2.7,2.2,6.2,3.1,9.3,4.7
		c4.3-9.4,7.9-19.2,12.5-28.5c1.7,8,3.3,15.9,5,23.9c6.8-4.7,13.4-9.5,20.2-14.2c-3.2,10-7.3,19.7-10.6,29.7c3.3,1,6.7,2,10,3
		c5.4-15.3,11.2-30.3,16.5-45.6c-3.5-1.1-7-2.4-10.5-3.7c-6.4,4.7-12.2,10-18.5,14.8c-1.7-7.9-2.7-15.9-4.7-23.7
		C593.8,751.2,590.1,749.9,586.7,748.2 M789.8,765.2c4.8,15.5,10.7,30.7,16.2,46c10.3-3.9,22.4-5.7,30-14.5c7.1-7.8,7.2-20.4,1.4-29
		c-5.2-8.2-15.8-12.2-25.2-10C804.6,759.6,797.4,763,789.8,765.2 M739.7,775.6c2.2,16.1,5,32.1,7.2,48.2c12.8-1.6,25.4-4,38-6.6
		c-0.5-3.2-1.2-6.4-1.8-9.5c-8.9,2-17.9,4-27,5.3c-0.5-3.3-1.2-6.5-1.3-9.8c7.5-1.9,15.2-2.8,22.7-4.6c-0.6-3.1-1.3-6.2-1.9-9.3
		c-7.4,1.5-14.8,3.1-22.3,4.3c-0.6-3.3-1.1-6.6-1.5-9.9c8.3-1.1,16.5-2.9,24.6-4.8c-0.6-3.1-1.3-6.2-1.8-9.4
		C763,772,751.4,774.2,739.7,775.6 M635.6,817.5c9.4,1.9,18.7,4.3,28.2,5.2c7.1,0.7,15.1-3.5,15.8-11.2c1.4-5.5-2.4-9.9-6.3-13.1
		c4.5-2.5,7.6-7.3,7-12.6c-0.4-5.7-5.5-9.8-10.8-11.1c-8-1.9-16.2-2.9-24.2-5C641.6,785.5,639,801.6,635.6,817.5 M696.8,777
		c-0.1,16.3-0.7,32.6-0.6,48.8c11.7,0.3,23.5,0.2,35.2-0.6c-0.2-3.2-0.4-6.4-0.6-9.6c-7.9,0.2-15.8,0.8-23.7,0.7
		c0.1-13,0.3-25.9,0.6-38.9C704,777.2,700.4,777,696.8,777"/>
	<path class="st1" d="M716.5,192c4.3-0.1,8.8-0.6,12.8,0.9c5.2,2.2,5.4,10.9,0.1,13.1c-4.3,1.8-9,0.7-13.5,0.6
		C716.2,201.8,716.4,196.9,716.5,192"/>
	<path class="st1" d="M803.3,208.7c6.9-2.6,15.4,1.1,18.2,7.9c3.6,7.9-0.7,18.4-9.1,21.2c-7.5,2.7-16.6-2-18.6-9.7
		C791.6,220.5,795.8,211.4,803.3,208.7"/>
	<path class="st1" d="M594.6,217.5c4.1,3.9,7.9,8,11.8,12c-4,1.6-8,3.1-12,4.6C594.4,228.6,594.4,223.1,594.6,217.5"/>
	<path class="st1" d="M987.6,398.8c4.7-1.7,9.4-3.4,14.1-5.1c1.4,4,3.5,7.8,3.8,12c-0.1,5.4-7.3,9.1-11.6,5.6
		C990.3,408.2,989.4,403.1,987.6,398.8"/>
	<path class="st1" d="M867.7,738.5c9.2-2.8,19,5.2,19.3,14.6c0.7,8.2-6.9,15.9-15.1,15.3c-8.8-0.2-16-9.1-14.8-17.7
		C857.8,744.9,862.3,740,867.7,738.5"/>
	<path class="st1" d="M803.1,771.2c5.1-2,10.5-4.9,16.2-3.7c9.4,2,14.4,14.7,8.9,22.6c-3.5,5-9.7,6.9-15.2,8.7
		C809.8,789.5,806.5,780.3,803.1,771.2"/>
	<path class="st1" d="M653.3,781.1c4.7,1,9.7,1.1,14,3.3c3.3,1.9,2.4,7.6-1.3,8.5c-4.9,0.9-9.9-0.7-14.7-1.9
		C652.1,787.7,652.7,784.4,653.3,781.1"/>
	<path class="st1" d="M649.7,800c5.6,1.5,11.8,1.3,17.1,3.9c4.1,2,2.6,8.6-1.8,9c-5.9,0.4-11.7-1.5-17.4-2.7
		C648.4,806.8,649,803.4,649.7,800"/>
	<path class="st2" d="M684.2,275.8c31-3.3,62.9-0.7,92.7,8.7c31.9,10,61.6,26.9,86.3,49.3c40.4,36.7,67.5,88,74.1,142.2
		c6.4,51.1-5,104.2-32.1,147.9c-10.4,16.4-22.3,32-36.5,45.3c-15.7,15.6-34.2,28.3-53.6,38.8c-37.8,19.4-80.9,28.5-123.3,25.1
		c-46.7-3.6-92.2-21.6-128.3-51.5c-21.7-17.9-40-39.7-54-64.1c-18.8-33.4-29.4-71.5-29.7-109.9c-0.7-38.4,8.6-76.8,26.6-110.7
		c26.3-49.8,71.6-89.4,124.6-108.4C648,281.8,666,277.6,684.2,275.8 M585.5,363c-16.9,6.1-31.1,19.6-38,36.2
		c-6.4,14.5-6.6,31.4-1.7,46.4c7,21.5,22.6,39.3,40.2,53c17,13.2,39.2,17.9,60.3,15.8c15.1-1.6,31.1,0.4,44.3,8.6
		c5.3-5.2,10.5-10.6,14.8-16.7c-4.6-7.8-7-16.6-7.8-25.6c-1.4-11.7,1.2-23.4,0.2-35.1c-1.2-19.9-10.6-38.7-24.3-52.8
		c-9.2-9.8-19.8-18.4-31.8-24.6C624.8,358.6,603.7,356.3,585.5,363 M802.4,359.9c-18.2,2.4-34.6,12.1-48.2,24
		c-10.3,9.4-19.8,19.9-25.9,32.5c-7,14-8.9,30-7.6,45.4c1.1,12.6,0.4,25.6-4.3,37.5c-3.8,9.8-11,17.7-18.2,25.1
		c-8.2,8.1-16.4,16.2-24.6,24.3c4.4,4.4,8.8,8.9,13.3,13.2c8.1-8.5,16.4-16.8,24.6-25.2c6.1-6.6,13.3-12.2,21.4-16.2
		c12.9-6.4,27.8-7.1,41.9-5.5c12.9,0.6,26.1-0.6,38.3-5.4c14.8-5.7,27.1-16.2,37.7-27.7c12.1-13.4,21.8-29.7,24.4-47.8
		c3.2-21.6-5.3-44.6-22.1-58.6C839.5,363.3,820.5,357.5,802.4,359.9 M713.9,543.3c6.1,6.2,11.9,12.7,18.2,18.6
		c4.2-4.5,8.7-8.8,13-13.2c-6.2-5.5-11.8-11.6-17.8-17.3C722.7,535.1,718.2,539.1,713.9,543.3 M667.6,553.1
		c-7.8,6.4-14.9,13.6-22.1,20.7c10.6,0,21.2,0.4,31.7-0.2c2.1-1.9,3.8-4.2,5.5-6.4c-4.9-4.6-9.3-9.7-14.4-14.1L667.6,553.1
		 M736.8,566.5c-1.4,1.2,0.7,2.6,1.3,3.6c6.2,6.9,12.8,13.5,19.2,20.3c0-10.5,0.2-20.9-0.1-31.4c-1.3-2.6-4.2-4.2-6.3-6.3
		C746,557,741.4,561.8,736.8,566.5 M764,565c-0.1,9.3,0,18.6-0.1,27.9c0.2,1.8-0.5,4,1,5.3c3.9,4.1,8,8.1,11.9,12.2
		c0-11.1,0-22.3-0.1-33.4C772.4,573.1,768.3,569,764,565 M625.2,593.5c10.9-0.1,21.9,0.2,32.8-0.1c4.7-3.7,8.5-8.4,12.5-12.7
		c-10.8-0.1-21.6,0-32.4,0C633.9,585,629.4,589.1,625.2,593.5 M783.4,583.6c0,11.2,0.1,22.3,0,33.5c4.2,4.2,8.3,8.5,12.9,12.4
		c0.2-11,0-22,0.1-33C792.1,592.2,787.8,587.8,783.4,583.6 M618.4,600.2c-4.2,4.2-8.4,8.4-12.4,12.8c11,0.2,22,0,33.1,0.1
		c4.1-4.3,8.5-8.3,12.3-12.8C640.5,600.1,629.4,600.3,618.4,600.2 M802.9,603.1c0,11,0,21.9,0,32.9c2.6,2.1,5.6,5.4,9.2,3.5
		c4.4-2.4,8.1-6.2,10.5-10.5c1.8-2.9-0.4-5.9-2.4-7.9C814.6,615,809,608.9,802.9,603.1 M599.5,619.8c-1.8,2.4-5.1,4.8-3.9,8.2
		c2.1,5,6.4,9,11.1,11.7c3.3,1.6,6.2-1.1,8.4-3.1c5.8-5.5,11.7-10.9,17.2-16.7C621.3,619.7,610.4,619.9,599.5,619.8 M695.4,640.9
		c3.3,2.9,7.2,5.4,11.6,5.8c6.1,1,12.1-1.8,16.6-5.7C715.6,634.4,703.5,634.5,695.4,640.9 M690.9,645.4c-5.1,7.8-5.1,18.1,0,26
		c5.2-4.4,11.6-7.8,18.5-7.6c7-0.3,13.5,3,18.6,7.6c5.2-7.8,5.2-18.3,0-26.1c-6.1,5.9-14.9,9.1-23.3,7.3
		C699.5,651.8,694.9,648.8,690.9,645.4 M695.4,676c8.1,6.4,20.1,6.5,28.2,0C716.2,668.1,702.8,668.2,695.4,676"/>
	<path class="st2" d="M600.1,369.2c19.4-2.7,38.3,6.2,53,18.1c15.4,11.9,28.7,28.1,32.4,47.6c3.3,17.7,1.4,37.9-11,51.8
		c-7.5,9.2-18.9,14.4-30.4,16.3c-14.8,2-30.4,0.3-43.7-6.8c-13.5-7.3-24.5-18.5-33.5-30.8c-8.3-12-14.8-26-15-40.9
		c-0.6-17,8.1-33.5,21.5-43.7C580.8,374.4,590.3,370.4,600.1,369.2 M602.1,373.6c0,3.3,0,6.6,0,10c-4.7,0-9.4,0-14.1-0.1
		c0-2.3,0-4.6,0-6.9c-3.9,0.4-2.8,4.2-2.9,6.9c-4.4,0.4-9.9-1.5-12.8,2.9c4.3,0.1,8.5,0.1,12.8,0c0.1,5,0,9.9,0.1,14.9
		c-4.8,0.1-9.6,0.1-14.3,0.1c0-4.5,0-9,0-13.5c-4.8,2.9-2.8,8.9-3.3,13.5c-2.7,0.3-7.2-1.4-7.6,2.8c2.5,0,5.1,0,7.6,0
		c0.1,4.9,0.1,9.7,0.1,14.6c-3.6,0.1-7.2,0.1-10.8,0.1c0,0.8-0.1,2.3-0.2,3c3.7,0.2,7.3,0.2,11,0.2c0,4.6,0,9.1,0,13.7
		c-3.3,0-6.6,0-10,0c0.2,0.7,0.7,2.1,1,2.8c3,0.3,6,0.2,9,0.2c0,4.7,0,9.4,0,14.1c-1.1,0-3.4,0-4.5,0c0.8,2.1,2.3,3.1,4.4,3
		c-0.3,3.6,0.6,7.1,3.4,9.6c0-3.3-0.1-6.5-0.1-9.8c4.8,0,9.6-0.1,14.4,0.1c-0.1,4.6-0.1,9.3,0,13.9c-3.8,0-7.6,0-11.4,0.1
		c2.2,4.4,7.5,2.5,11.4,2.9c0.4,3.9-1.7,9.2,2.8,11.3c0.1-3.8,0.1-7.5,0.1-11.3c4.7,0,9.3,0,14,0c0,4.7,0,9.4,0,14
		c-3.4,0-6.8,0-10.1,0c2.6,3,6.4,3.3,10.1,3c0,0.9,0.1,2.6,0.1,3.4c0.9,0.4,1.9,0.8,2.8,1.3c0-1.6,0-3.2,0-4.7c4.7,0,9.3,0,14,0
		c0,3.1,0,6.2,0,9.3c0.7,0.2,2.2,0.6,3,0.8c0-3.4,0-6.7,0-10.1c4.6,0,9.1,0,13.7,0c0,3.7,0,7.5,0,11.2c1-0.2,2.3,0.2,3.1-0.5
		c0.3-3.6,0.1-7.2,0.1-10.7c4.5,0,9.1,0,13.6,0c0.1,2.7,0.1,5.4,0.2,8.1c4.2-0.5,2.4-5.2,2.9-8c4.7-0.4,10.1,1.3,14-2.1
		c4.4-3.6,2.6-9.9,2.9-14.8c2.2,0,4.5,0,6.7,0c0.3-0.7,1-2.2,1.3-2.9c-2.7,0-5.4,0-8-0.1c0.3-4.6-0.5-9.4,0.4-13.9
		c3.5-0.2,7-0.1,10.5,0c0.2-1,0.5-1.9,0.8-2.9c-3.9-0.2-7.7-0.1-11.6-0.1c-0.1-4.7-0.1-9.4-0.1-14c3.5,0,7,0,10.5-0.1l-0.9-2.7
		c-3.2-0.3-6.4-0.2-9.6-0.2c0-4.5,0.1-9-0.1-13.6c1.7-0.1,3.5-0.2,5.2-0.2c-0.5-1-1-2-1.5-3c-0.9,0-2.6-0.1-3.5-0.1
		c0.2-3.8,0-7.7-2.9-10.6c-0.1,3.5-0.1,7.1-0.1,10.6h-14v-14.6c3.6,0,7.3,0,10.9,0c-1.8-4.5-7.1-2.5-10.9-2.9
		c-0.2-3.9,1.3-8.8-2.9-11c-0.1,3.7,0,7.3-0.1,11h-13.7c0-5,0-9.9,0-14.9c2.8,0,5.6,0,8.4,0c-2.4-1.6-4.9-3.1-7.9-3.2
		c-0.8-1.5-1.7-3-3.6-2.9c-0.1,0.8-0.2,2.4-0.3,3.2c-4.5,0-9.1,0-13.6,0c0-2.7,0-5.4,0-8.1c-0.7-0.2-2.1-0.6-2.8-0.8
		c-0.1,3-0.2,5.9-0.1,8.9c-4.7,0.1-9.4,0.1-14,0.1c0-3.3,0-6.7-0.1-10C604.3,373.6,602.8,373.6,602.1,373.6"/>
	<path class="st2" d="M798.8,370.4c12.7-2.7,26.5-1.2,37.9,5.1c14.4,8.5,26.1,22.7,28.9,39.5c3.3,18.1-3.9,36.5-14.5,51
		c-12,16.7-28.4,31.7-48.9,36.5c-14.8,2.8-30.9,2.5-44.6-4.5c-11.3-6.1-20.3-16.5-23.8-29c-3.7-13.6-3.2-28.2,0.9-41.6
		c4.5-13.4,13.4-24.9,23.9-34.2C770,382.7,783.6,374,798.8,370.4 M813.4,374.1c0,3.3,0,6.6,0,9.8h-14V375c-0.7,0.2-2.2,0.7-3,0.9
		c0,2.7,0,5.4,0.1,8h-14c0-0.9-0.1-2.7-0.1-3.6c-1.5,0.7-2.8,1.7-3.4,3.3c-2.9,0-5.5,1.4-7.8,3.1c2.8,0.1,5.5,0.1,8.3,0.1v14.9h-14
		c0-3.6,0-7.2,0-10.9c-1,0.8-2,1.7-2.9,2.5c0,2.8,0,5.5,0,8.3c-2.8,0-5.6,0-8.4-0.1c-0.8,1-1.7,1.9-2.5,2.9c3.6,0,7.3,0,10.9,0.2
		c-0.1,4.9-0.1,9.8,0,14.8c-4.7,0.1-9.4,0-14.1,0c0-3.5,0.1-6.9,0-10.4c-3.2,2.7-3,6.7-3,10.5c-0.9,0-2.6-0.1-3.4-0.1
		c-0.3,0.7-1,2.2-1.4,3c1.6,0,3.2,0,4.8,0c0.1,4.6,0,9.2,0,13.8c-3.1,0-6.2-0.1-9.3,0.1c-0.4,1-0.7,2-1,3c3.4,0.1,6.9,0.1,10.3,0.1
		c0,4.6,0.1,9.2-0.1,13.8c-3.7-0.1-7.5-0.1-11.2,0c0.1,0.7,0.4,2.1,0.5,2.8c3.6,0.2,7.2,0.1,10.9,0.1v14c-2.7,0-5.4-0.1-8,0.4
		c0.7,4,5.1,2.2,7.9,2.5c0.2,3.6-0.1,7.3,0.3,11c1.6,2.2,3.6,4.1,5.8,5.8c3.6,0.5,7.3,0.2,11,0.3c0.3,2.9-1.4,7.4,2.9,7.9
		c0-2.7,0-5.3,0.1-8h14c0,3.7,0,7.4,0,11.1c0.7,0,2.2,0,2.9,0c0-3.6,0-7.3-0.1-10.9c4.7-0.2,9.4-0.2,14.2-0.1
		c-0.1,3.4-0.1,6.8,0,10.2c0.7-0.2,2.1-0.7,2.8-1c0.3-3.1,0.1-6.2,0.1-9.3h14c0.1,1.6,0.1,3.2,0.2,4.8c0.9-0.5,1.9-1.1,2.9-1.6
		c0-0.8-0.1-2.3-0.1-3.1c3.7,0.3,7.6,0,10.1-3.1c-3.4,0.1-6.7,0.1-10.1,0.1v-14c4.7,0,9.3,0,14,0c0,3.7,0,7.5,0,11.2
		c4.5-2.1,2.5-7.4,3-11.3c3.9-0.2,9,1.5,11.4-2.8c-3.8-0.1-7.6-0.1-11.4-0.1v-14h14.3c0,3.3,0,6.5,0,9.8c2.7-2.5,3.3-5.9,3-9.5
		c2.3,0.1,3.7-1.3,4.7-3.2c-1.6,0-3.2-0.1-4.7-0.1c0-4.6,0-9.1,0-13.7c3.1,0,6.2,0,9.3,0c0.2-0.8,0.5-2.4,0.7-3.2h-10
		c0-4.6,0-9.2,0-13.8c3.8,0,7.5,0,11.3,0c-0.1-0.7-0.4-2.1-0.5-2.7c-3.6-0.3-7.2-0.1-10.8-0.2v-14.9h7.7c-0.3-0.7-1-2.2-1.3-2.9
		c-2.1-0.2-4.4,0.4-6.3-0.4c-0.5-4.5,1.5-10.1-3-13.2c-0.1,4.5,0,9.1,0,13.6c-4.8,0-9.6,0-14.3,0v-14.9c4.4,0,8.7,0.1,13.1-0.2
		c-3.3-3.9-8.5-2.6-12.9-2.7c-0.3-2.6,0.8-6.5-2.9-6.9c-0.1,2.3-0.2,4.6-0.2,6.9c-4.6,0-9.3,0-13.9,0c0-3.4,0-6.7,0-10
		C815.4,373.9,814.4,374,813.4,374.1"/>
	<path class="st2" d="M588.1,386.5c4.6,0,9.2,0,13.8,0c0.3,5,0.2,10,0.2,15c-4.7,0-9.4,0-14,0C588.1,396.4,588.1,391.5,588.1,386.5"
		/>
	<path class="st2" d="M605.2,386.5c4.6,0.1,9.2,0.1,13.9,0c0,5,0,9.9,0.1,14.9c-4.7,0.1-9.4,0.1-14.1,0.1
		C605,396.5,604.9,391.5,605.2,386.5"/>
	<path class="st2" d="M622,386.5c4.5,0.1,9,0.1,13.6,0c0.2,5,0.1,10,0.1,15c-4.6,0-9.2,0-13.8-0.1C622,396.4,622,391.4,622,386.5"/>
	<path class="st2" d="M782.5,386.8c4.7,0,9.3,0,14,0c0,5,0,9.9,0,14.9h-14C782.5,396.8,782.4,391.8,782.5,386.8"/>
	<path class="st2" d="M799.4,386.8c4.7,0,9.4,0,14,0v14.9c-4.7,0-9.4,0-14,0V386.8z"/>
	<path class="st2" d="M816.4,386.8h14c0,5,0,9.9,0,14.9c-4.7,0-9.4,0-14,0C816.4,396.8,816.3,391.8,816.4,386.8"/>
	<path class="st2" d="M570.8,404.4c4.8,0,9.5,0,14.3,0c0,4.9,0,9.8,0,14.6c-4.8,0-9.5,0-14.3,0C570.8,414.1,570.8,409.2,570.8,404.4
		"/>
	<path class="st2" d="M588.1,404.4c4.7,0,9.3,0,14,0c0,4.9,0,9.7,0,14.6c-4.7,0-9.3,0-14,0C588.1,414.1,588.1,409.2,588.1,404.4"/>
	<path class="st2" d="M605,404.4c4.7,0,9.3,0,14,0c0,4.9,0,9.8,0,14.6c-4.7,0-9.3,0-14,0C605,414.1,605,409.2,605,404.4"/>
	<path class="st2" d="M622,404.4c4.6,0,9.1,0,13.7,0V419c-4.6,0-9.1,0-13.7,0C622,414.1,622,409.2,622,404.4"/>
	<path class="st2" d="M638.9,404.4c4.6,0,9.1,0,13.7,0c0,4.9,0,9.7,0,14.6c-4.6,0-9.1,0-13.7,0C638.9,414.1,638.9,409.2,638.9,404.4
		"/>
	<path class="st2" d="M765.5,404.7h14c0,5,0,10,0,14.9c-4.7,0-9.3,0-13.9,0C765.5,414.6,765.5,409.6,765.5,404.7"/>
	<path class="st2" d="M782.4,404.7c4.7-0.1,9.4-0.1,14.1-0.1c0,4.9,0,9.9,0.1,14.8c-4.7,0.2-9.4,0.1-14.1,0.1
		C782.5,414.6,782.5,409.7,782.4,404.7"/>
	<path class="st2" d="M799.4,404.7h14c0,5,0,10,0,14.9c-4.6,0-9.3-0.1-13.9,0C799.4,414.6,799.4,409.6,799.4,404.7"/>
	<path class="st2" d="M816.3,404.8c4.7-0.1,9.4-0.1,14.1-0.1c0,4.9,0,9.8,0.1,14.8c-4.7,0.2-9.4,0.2-14.1,0.1
		C816.4,414.6,816.4,409.7,816.3,404.8"/>
	<path class="st2" d="M833.3,404.7h14.3c0,5,0,9.9,0,14.9c-4.8,0-9.6,0-14.3,0C833.3,414.6,833.3,409.6,833.3,404.7"/>
	<path class="st2" d="M570.8,422.2c4.8,0,9.6,0,14.3,0c0,4.6,0,9.1,0,13.7c-4.8,0-9.6,0.1-14.4-0.1
		C570.9,431.3,570.8,426.7,570.8,422.2"/>
	<path class="st2" d="M588,422.3c4.7-0.1,9.4-0.1,14.1-0.1c0,4.6,0,9.2,0,13.8c-4.7,0-9.3,0-14,0C588.1,431.4,588.1,426.8,588,422.3
		"/>
	<path class="st2" d="M605,422.2c4.7,0,9.4,0,14.1,0c-0.1,4.6,0,9.1,0,13.7c-4.7,0-9.3,0-14,0C605,431.4,605,426.8,605,422.2"/>
	<path class="st2" d="M621.9,422.2c4.6-0.1,9.2-0.1,13.8,0c0,4.6,0,9.2,0,13.8c-4.6,0-9.1,0-13.7,0C622,431.4,622,426.8,621.9,422.2
		"/>
	<path class="st2" d="M638.9,422.2h13.7c0,4.6,0,9.2,0,13.7c-4.6,0-9.2,0-13.7,0C638.9,431.4,638.9,426.8,638.9,422.2"/>
	<path class="st2" d="M655.6,422.2h14c0,4.6,0,9.2-0.1,13.8c-4.6-0.1-9.3-0.1-13.9,0C655.6,431.4,655.6,426.8,655.6,422.2"/>
	<path class="st2" d="M748.5,422.5c4.7,0,9.3,0,14-0.1c0.1,4.6,0.1,9.2,0.1,13.8c-4.7,0-9.4,0-14.1-0.1
		C748.6,431.6,748.6,427,748.5,422.5"/>
	<path class="st2" d="M765.6,422.4c4.6,0.1,9.3,0.1,13.9,0c0,4.6,0,9.2,0,13.8h-14C765.5,431.6,765.5,427,765.6,422.4"/>
	<path class="st2" d="M782.4,422.5c4.7-0.1,9.4-0.1,14.1,0.1c-0.1,4.5-0.1,9.1-0.1,13.6c-4.7,0-9.4,0.1-14.1-0.1
		C782.5,431.6,782.5,427,782.4,422.5"/>
	<path class="st2" d="M799.5,422.4c4.6,0.1,9.3,0.1,13.9,0c0.1,4.6,0,9.2,0,13.8h-14C799.4,431.6,799.4,427,799.5,422.4"/>
	<path class="st2" d="M816.3,422.5c4.7,0,9.4-0.1,14.1,0.1c-0.1,4.5-0.1,9.1-0.1,13.6c-4.7,0-9.4,0-14.1-0.1
		C816.4,431.6,816.4,427,816.3,422.5"/>
	<path class="st2" d="M833.3,422.5c4.8,0,9.6,0,14.3,0c0,4.6,0,9.1,0,13.7h-14.3C833.3,431.7,833.3,427.1,833.3,422.5"/>
	<path class="st2" d="M570.9,438.8c4.7,0.1,9.5,0,14.2,0c0,4.7,0,9.3,0,14c-4.8,0.1-9.6,0.1-14.3,0.1
		C570.8,448.2,570.8,443.5,570.9,438.8"/>
	<path class="st2" d="M588.1,438.9c4.7,0,9.3,0,14,0c0,4.7,0,9.4,0,14c-4.7,0-9.4,0-14.1-0.1C588.1,448.2,588.1,443.5,588.1,438.9"
		/>
	<path class="st2" d="M605.1,438.8c4.7,0,9.3,0,14,0c0,4.7,0,9.3,0,14c-4.7,0.1-9.4,0.1-14,0C605,448.2,605,443.5,605.1,438.8"/>
	<path class="st2" d="M622,438.9c4.6,0,9.1,0,13.7,0c0.1,4.7,0.1,9.4,0.1,14.1c-4.6,0-9.2,0-13.8-0.1C622,448.2,622,443.5,622,438.9
		"/>
	<path class="st2" d="M639,438.8c4.6,0,9.1,0,13.7,0.1c0,4.7,0,9.4-0.1,14c-4.5,0-9.1,0-13.6,0C638.9,448.2,638.9,443.5,639,438.8"
		/>
	<path class="st2" d="M655.6,438.8c4.7,0.1,9.3,0,14,0c0,4.7,0,9.4,0,14.1h-14C655.6,448.2,655.6,443.5,655.6,438.8"/>
	<path class="st2" d="M748.6,439.4h14c0,4.6,0,9.2,0,13.7h-14C748.5,448.6,748.5,444,748.6,439.4"/>
	<path class="st2" d="M765.5,439.4h14v13.7c-4.7,0-9.4,0-14,0V439.4z"/>
	<path class="st2" d="M782.5,439.5c4.7,0,9.3,0,14,0c0,4.6,0,9.1,0,13.7h-14C782.5,448.6,782.5,444,782.5,439.5"/>
	<path class="st2" d="M799.4,439.4c4.7,0,9.4,0,14,0v13.7c-4.7,0-9.4,0-14,0V439.4z"/>
	<path class="st2" d="M816.4,439.4h14c0,4.6,0,9.2,0,13.7h-14C816.4,448.6,816.3,444,816.4,439.4"/>
	<path class="st2" d="M833.3,439.5c4.8,0,9.5,0,14.3,0c0,4.6,0,9.1,0,13.7c-4.8,0-9.6,0-14.3,0V439.5z"/>
	<path class="st2" d="M588,455.9c4.7-0.1,9.4-0.1,14.1-0.1c0,4.7,0.1,9.4-0.1,14.1c-4.7-0.1-9.3,0-13.9,0
		C588.1,465.2,588.1,460.5,588,455.9"/>
	<path class="st2" d="M605,455.8c4.7,0,9.4,0,14,0c0,4.7,0,9.3,0,14c-4.7,0-9.3,0-14,0C605,465.2,605,460.5,605,455.8"/>
	<path class="st2" d="M622,455.8c4.6,0,9.2,0,13.8,0c0,4.7,0,9.4,0,14.1c-4.6,0-9.1,0-13.7,0C622,465.2,622,460.5,622,455.8"/>
	<path class="st2" d="M638.9,455.8c4.5,0,9.1,0,13.6,0c0.1,4.7,0.1,9.4,0.1,14c-4.6,0-9.1,0-13.7,0.1
		C638.9,465.2,638.9,460.5,638.9,455.8"/>
	<path class="st2" d="M655.6,455.8c4.7,0,9.4,0,14,0c0,4.7,0,9.4,0,14.1c-4.7,0-9.3-0.1-13.9,0C655.6,465.2,655.6,460.5,655.6,455.8
		"/>
	<path class="st2" d="M748.6,456.1h14c0,4.7,0,9.4,0,14c-4.7,0-9.3,0-14,0C748.5,465.5,748.5,460.8,748.6,456.1"/>
	<rect x="765.5" y="456.1" class="st2" width="14" height="14"/>
	<path class="st2" d="M782.5,456.1h14c0,4.7,0,9.4,0,14h-14C782.4,465.5,782.4,460.8,782.5,456.1"/>
	<rect x="799.4" y="456.1" class="st2" width="14" height="14"/>
	<path class="st2" d="M816.4,456.1h14c0,4.7,0,9.4,0,14h-14C816.3,465.5,816.4,460.8,816.4,456.1"/>
	<path class="st2" d="M605.1,472.8c4.7,0,9.3,0,14,0c0,4.7,0,9.3,0,14c-4.7,0.1-9.4,0.1-14,0C605,482.1,605,477.4,605.1,472.8"/>
	<path class="st2" d="M622,472.8c4.6,0,9.1,0,13.7,0c0,4.7,0,9.4,0,14c-4.6,0-9.2,0-13.8-0.1C622,482.1,622,477.4,622,472.8"/>
	<path class="st2" d="M639,472.7c4.6,0,9.1,0,13.7,0.1c0,4.7,0,9.4-0.1,14c-4.5,0-9.1,0-13.6,0C638.9,482.1,638.9,477.4,639,472.7"
		/>
	<path class="st2" d="M655.6,472.7c4.6,0,9.3,0,13.9,0c-0.2,4.5,0.7,9.1-0.2,13.5c-4.2,1.5-9.2,0.1-13.7,0.6
		C655.6,482.1,655.6,477.4,655.6,472.7"/>
	<path class="st2" d="M748.6,473.1h14c0,4.7,0,9.4,0,14c-4.7,0-9.3,0-14,0C748.5,482.4,748.5,477.7,748.6,473.1"/>
	<path class="st2" d="M765.5,473.1c4.7,0,9.4,0,14,0v14c-4.7,0-9.4,0-14,0V473.1z"/>
	<path class="st2" d="M782.5,473.1c4.7,0,9.3,0,14,0c0,4.7,0,9.3,0,14c-4.7,0.1-9.4,0.1-14.1,0C782.5,482.4,782.5,477.7,782.5,473.1
		"/>
	<path class="st2" d="M799.4,473.1c4.7,0,9.4,0,14,0v14c-4.7,0-9.4,0-14,0V473.1z"/>
</g>
</svg>
